<svg width="24" height="24" viewBox="0 0 24 24" fill="none" xmlns="http://www.w3.org/2000/svg">
<g id="eye-closed">
<path id="Icon" d="M20.3999 19.5001L5.3999 4.50012M10.1999 10.4417C9.82648 10.8534 9.5999 11.3942 9.5999 11.9864C9.5999 13.2762 10.6744 14.3218 11.9999 14.3218C12.611 14.3218 13.1688 14.0995 13.5926 13.7335M20.4387 14.3218C21.2649 13.0849 21.5999 12.0763 21.5999 12.0763C21.5999 12.0763 19.4153 5.10012 11.9999 5.10012C11.5836 5.10012 11.1838 5.12211 10.7999 5.16362M17.3999 17.3496C16.0225 18.2283 14.2492 18.8496 11.9999 18.8129C4.67683 18.6931 2.3999 12.0763 2.3999 12.0763C2.3999 12.0763 3.45776 8.6982 6.5999 6.64344" stroke="#202020" stroke-width="2" stroke-linecap="round"/>
</g>
</svg>
